<svg width="60" height="60" viewBox="0 0 60 60" fill="none" xmlns="http://www.w3.org/2000/svg">
<rect width="60" height="60" fill="white"/>
<path d="M20.7582 45.4131C21.8785 43.7151 21.8785 41.9795 20.7582 40.2816C19.5641 40.0981 18.8529 39.2115 18.8529 38.0662V20.8985C18.8529 19.7532 19.5261 18.9042 20.7582 18.7208C19.6379 17.0228 19.6379 15.2872 20.7582 13.5893C15.7537 13.7374 12.6164 16.1009 12.6164 19.9037V39.5102C12.6164 43.313 15.7537 45.2696 20.7582 45.4178V45.4131Z" fill="white"/>
<path d="M30.0178 26.4721V19.899C30.0178 16.1691 26.9567 13.8433 22.064 13.6222C20.9437 15.3578 20.9437 17.0557 22.064 18.7913C23.1462 19.05 23.7813 19.899 23.7813 20.9338V26.4721H30.0178Z" fill="white"/>
<path d="M30.0178 39.5055V31.5307H23.7813V38.1039C23.7813 39.1739 23.1462 40.0229 22.064 40.2463C23.1843 41.9443 23.1843 43.6798 22.064 45.3778C26.9566 45.1944 30.0178 43.273 30.0178 39.5078V39.5055Z" fill="white"/>
<path d="M47.3836 14.2148H42.3054V19.3111H47.3836V14.2148Z" fill="#41C941"/>
<path d="M41.109 14.2148H34.8725V44.7852H41.109V31.5684H47.16V26.4721H41.109V14.2148Z" fill="#41C941"/>
<path d="M47.3836 11.6279H32.2584V17.3826C31.7756 15.8281 30.8384 14.4641 29.4993 13.4176C27.6774 11.9948 25.149 11.174 22.1829 11.04C22.1425 11.04 22.102 11.0376 22.064 11.0376C21.8666 11.0376 21.6715 11.0588 21.4836 11.1011C21.2505 11.0353 21.0079 11 20.7582 11C20.732 11 20.7058 11 20.6797 11C14.191 11.1928 10 14.6852 10 19.9014V39.5078C10 42.2124 11.1417 44.4395 13.3014 45.9469C15.1258 47.2192 17.609 47.9106 20.6773 48.0023C20.7035 48.0023 20.7296 48.0023 20.7558 48.0023C21.0032 48.0023 21.2481 47.9671 21.4812 47.9012C21.6691 47.9436 21.8642 47.9647 22.0616 47.9647C22.0949 47.9647 22.1282 47.9647 22.1615 47.9647C25.1775 47.8518 27.6108 47.1534 29.3947 45.8905C30.8004 44.8957 31.7637 43.5881 32.2537 42.0383V47.3768H43.723V34.1576H49.7717V23.8876H43.723V21.898H49.9976V11.6279H47.3812H47.3836ZM47.16 31.5684H41.1114V44.7875H34.8748V14.2148H41.1114V26.4721H47.16V31.5684ZM47.3836 19.3111H42.3054V14.2148H47.3836V19.3111ZM12.6164 19.9014C12.6164 16.0986 15.7537 13.7351 20.7582 13.5869C19.6379 15.2849 19.6379 17.0205 20.7582 18.7184C19.5261 18.9019 18.8529 19.7532 18.8529 20.8961V38.0639C18.8529 39.2092 19.5618 40.0934 20.7582 40.2792C21.8785 41.9772 21.8785 43.7128 20.7582 45.4107C15.7537 45.2626 12.6164 43.3059 12.6164 39.5031V19.9014ZM22.064 18.7937C20.9437 17.0581 20.9437 15.3601 22.064 13.6245C26.9567 13.8456 30.0178 16.1715 30.0178 19.9014V26.4745H23.7813V20.9361C23.7813 19.9014 23.1462 19.0524 22.064 18.7937ZM22.064 40.2463C23.1462 40.0252 23.7813 39.1763 23.7813 38.1039V31.5307H30.0178V39.5055C30.0178 43.2706 26.9567 45.192 22.064 45.3755C23.1843 43.6775 23.1843 41.9419 22.064 40.2439V40.2463Z" fill="black"/>
</svg>
