<svg width="154" height="87" viewBox="0 0 154 87" fill="none" xmlns="http://www.w3.org/2000/svg">
<g clip-path="url(#clip0_1_112)">
<path d="M14.9982 4.29108C13.7225 6.28884 13.7225 8.24171 14.9982 10.2395C16.229 10.535 16.9511 11.5152 16.9511 12.7049V19.076H24.048V11.5115C24.048 7.22039 20.565 4.54548 14.9982 4.28734V4.29108Z" fill="#41C941"/>
<path d="M13.5092 40.8719C14.785 38.919 14.785 36.9212 13.5092 34.9646C12.1512 34.7514 11.3431 33.7338 11.3431 32.4169V12.66C11.3431 11.3431 12.1063 10.3667 13.5092 10.1534C12.2335 8.20056 12.2335 6.2028 13.5092 4.24619C7.81522 4.41454 4.24619 7.13434 4.24619 11.5115V34.0705C4.24619 38.4476 7.81522 40.6998 13.5092 40.8681V40.8719Z" fill="#41C941"/>
<path d="M24.048 34.0742V24.8972H16.9511V32.4618C16.9511 33.6926 16.229 34.6728 14.9982 34.9272C16.2739 36.8801 16.2739 38.8778 14.9982 40.8344C20.565 40.6212 24.048 38.4139 24.048 34.078V34.0742Z" fill="#41C941"/>
<path d="M28.9339 11.5152V16.6555H36.0308V12.7049C36.0308 11.4292 36.8389 10.4116 38.1969 10.1572C36.9212 8.2043 36.9212 6.20654 38.1969 4.24992C32.5478 4.46317 28.9339 7.13808 28.9339 11.5152Z" fill="#41C941"/>
<path d="M35.7316 40.7035C37.1756 40.7035 39.0462 40.1498 40.4491 39.2594C40.2808 37.7705 40.3219 36.2441 40.2808 34.7551C39.8543 34.9235 39.3904 35.0095 38.8367 35.0095C37.0933 35.0095 36.0308 33.9059 36.0308 32.4169V27.1045C36.0308 24.4707 38.7058 24.4296 41.6388 23.9619V35.3499C41.6388 37.6433 41.68 39.3866 42.1476 40.1498H49.1136C48.8592 39.4689 48.732 38.0697 48.732 36.5396V11.5152C48.732 7.18297 45.249 4.54921 39.6822 4.29108C38.4065 6.28884 38.4065 8.24171 39.6822 10.2395C40.913 10.535 41.6351 11.4703 41.6351 12.7049V18.0996C35.4734 19.0349 28.9302 18.0584 28.9302 24.8561V33.0978C28.9302 38.2381 32.1999 40.7035 35.7278 40.7035H35.7316Z" fill="#41C941"/>
<path d="M61.5678 4.97197H54.4709V40.1498H61.5678V4.97197Z" fill="#41C941"/>
<path d="M62.9258 10.8343H64.8375C66.622 10.8343 67.1757 11.938 67.1757 13.8946V16.0195C67.1757 17.9724 66.622 19.0798 64.8375 19.0798H62.9258V24.9421H64.8375C66.622 24.9421 67.1757 26.0907 67.1757 28.0435V33.7375C67.1757 35.9897 67.1757 39.0499 67.6434 40.1536H74.6543C74.3138 39.2632 74.2727 37.1382 74.2727 35.1816V29.9141C74.2727 26.4722 74.1455 22.6077 68.3243 22.14C74.1455 21.5863 74.2727 17.2953 74.2727 13.8123V12.7909C74.2727 9.13585 74.1455 4.97197 68.2831 4.97197H62.9296V10.8343H62.9258Z" fill="#41C941"/>
<path d="M88.0775 10.8343H89.9892C91.7737 10.8343 92.3274 11.9379 92.3274 13.8946V16.0195C92.3274 17.9724 91.7737 19.0798 89.9892 19.0798H86.7194V4.97196H79.6225V40.1498H86.7194V24.9384H89.9892C91.7737 24.9384 92.3274 26.0869 92.3274 28.0398V31.2272C92.3274 33.1801 91.7737 34.2875 89.9892 34.2875H88.0775V40.1498H93.431C99.2934 40.1498 99.4206 35.9859 99.4206 32.3308V29.9103C99.4206 26.4685 99.2934 22.6039 93.4722 22.1363C99.2934 21.5826 99.4206 17.2915 99.4206 13.8085V12.7872C99.4206 9.13209 99.2934 4.96822 93.431 4.96822H88.0775V10.8306V10.8343Z" fill="#41C941"/>
<path d="M115.186 4.29108C113.91 6.28884 113.91 8.24171 115.186 10.2395C116.417 10.535 117.139 11.5152 117.139 12.7049V32.4618C117.139 33.6926 116.417 34.6728 115.186 34.9272C116.461 36.8801 116.461 38.8778 115.186 40.8344C120.752 40.6212 124.235 38.4139 124.235 34.078V11.5152C124.235 7.22412 120.752 4.54921 115.186 4.29108Z" fill="#41C941"/>
<path d="M104.437 11.5152V34.0742C104.437 38.4513 108.006 40.7035 113.7 40.8719C114.976 38.919 114.976 36.9212 113.7 34.9646C112.342 34.7514 111.534 33.7338 111.534 32.4169V12.66C111.534 11.3431 112.298 10.3667 113.7 10.1534C112.425 8.20056 112.425 6.2028 113.7 4.24619C108.006 4.41454 104.437 7.13434 104.437 11.5115V11.5152Z" fill="#41C941"/>
<path d="M136.982 4.97197H129.885V40.1498H136.982V4.97197Z" fill="#41C941"/>
<path d="M142.889 4.41827C141.359 4.41827 139.701 4.88592 138.343 5.86235V10.449C138.725 10.2357 139.234 10.1085 139.787 10.1085C141.531 10.1085 142.593 11.2122 142.593 12.7011V40.1461H149.69V12.024C149.69 6.88368 146.42 4.41827 142.893 4.41827H142.889Z" fill="#41C941"/>
<path d="M150.614 3.28845C148.601 1.27573 145.859 0.168351 142.889 0.168351C141.658 0.168351 140.435 0.359149 139.271 0.722038H125.638V4.16762C125.268 3.7748 124.868 3.40069 124.43 3.0565C122.148 1.25702 119.02 0.216986 115.38 0.0486347C115.317 0.0486347 115.249 0.0448936 115.186 0.0448936C114.976 0.0448936 114.767 0.0598581 114.561 0.0897871C114.28 0.029929 113.992 0 113.697 0C113.656 0 113.611 0 113.57 0C109.855 0.112234 106.66 1.12982 104.321 2.94801C103.487 3.59523 102.773 4.33971 102.182 5.15902C100.958 3.04154 98.4666 0.722038 93.431 0.722038H75.3726V3.10514C73.8986 1.7733 71.6651 0.722038 68.2756 0.722038H50.2172V4.22374C47.9351 1.76581 44.3511 0.250656 39.873 0.0486347C39.8094 0.0486347 39.742 0.0448936 39.6784 0.0448936C39.4689 0.0448936 39.2594 0.0598581 39.0537 0.0897871C38.7731 0.029929 38.485 0 38.1895 0C38.1371 0 38.0847 0 38.0286 0C34.3398 0.138422 31.1636 1.15975 28.8404 2.95549C27.9014 3.68127 27.112 4.52677 26.4797 5.46579C25.8737 4.56792 25.1217 3.7561 24.235 3.05276C21.9642 1.25328 18.8329 0.213244 15.1927 0.0486347C15.1291 0.0486347 15.0618 0.0448936 14.9982 0.0448936C14.7887 0.0448936 14.5792 0.0598581 14.3734 0.0897871C14.0928 0.029929 13.8048 0 13.513 0C13.4718 0 13.4269 0 13.3858 0C9.67082 0.112234 6.4759 1.12982 4.13769 2.94801C1.47026 5.02434 0 8.06588 0 11.5152V34.0742C0 37.5684 1.52638 40.5688 4.29482 42.5217C6.58065 44.1341 9.63715 45.0058 13.382 45.118C13.4232 45.118 13.4681 45.118 13.5092 45.118C13.801 45.118 14.0891 45.0881 14.3734 45.0283C14.5792 45.0582 14.7849 45.0731 14.9982 45.0731C15.0506 45.0731 15.1067 45.0731 15.1591 45.0731C18.8441 44.931 21.8445 44.0518 24.0817 42.4506C25.0618 41.751 25.8774 40.913 26.5284 39.974C27.0035 40.7297 27.5198 41.3432 28.0061 41.8296C28.5523 42.3758 29.1509 42.8509 29.7944 43.2587V86.2742H45.3874V71.0628H49.0126V86.2742H64.6056V83.1242C66.7081 85.2903 70.0938 86.8429 75.1556 86.9925C75.1967 86.9925 75.2416 86.9925 75.2828 86.9925C75.5746 86.9925 75.8626 86.9626 76.147 86.9027C76.3527 86.9327 76.5585 86.9476 76.7718 86.9476C76.8989 86.9476 77.0224 86.9439 77.1496 86.9289C78.5974 86.798 79.9629 86.4501 81.19 85.9113C81.7138 86.1395 82.2899 86.2667 82.8885 86.2667H85.8215C86.3041 86.2667 86.7643 86.1844 87.1945 86.0348V86.2667H115.492V56.9512H115.93V86.2667H131.523V56.9512H136.323V44.3885H153.933V12.024C153.933 7.5496 152.126 4.80361 150.61 3.28845H150.614ZM149.686 40.1498H142.589V12.7049C142.589 11.2159 141.527 10.1123 139.784 10.1123C139.23 10.1123 138.721 10.2395 138.34 10.4527V5.86609C139.698 4.88966 141.355 4.42202 142.885 4.42202C146.413 4.42202 149.683 6.88742 149.683 12.0277V40.1536L149.686 40.1498ZM132.077 52.7125H127.277V82.028H120.18V46.8502H132.077V52.7125ZM104.149 82.028V66.8166H99.8994V60.9542H104.149V46.8502H111.175V56.9625H111.246V82.028H104.149ZM76.7718 82.7089C78.0475 80.7561 78.0475 78.7583 76.7718 76.8017C78.0475 76.5061 78.7246 75.5708 78.7246 74.3363V68.0063H75.8776V62.1439H85.8178V82.028H82.8848L82.4171 79.4354C81.3958 81.3883 79.1474 82.4957 76.768 82.7052L76.7718 82.7089ZM48.0212 66.8203H41.1375V82.0318H34.0406V46.8539H41.1375V60.958H48.0212V66.8203ZM38.1969 10.1534C36.8389 10.4078 36.0308 11.4292 36.0308 12.7011V16.6518H28.9339V11.5115C28.9339 7.13434 32.5441 4.45943 38.1969 4.24618C36.9212 6.19905 36.9212 8.19682 38.1969 10.1534ZM28.9339 24.8523C28.9339 18.0547 35.4771 19.0311 41.6388 18.0958V12.7011C41.6388 11.4703 40.9167 10.535 39.6859 10.2357C38.4102 8.23797 38.4102 6.2851 39.6859 4.28734C45.2527 4.54173 48.7357 7.17549 48.7357 11.5115V36.5359C48.7357 38.066 48.8629 39.4689 49.1173 40.1461H42.1513C41.6837 39.3829 41.6425 37.6395 41.6425 35.3462V23.9582C38.7095 24.4258 36.0346 24.467 36.0346 27.1008V32.4132C36.0346 33.8984 37.0971 35.0058 38.8404 35.0058C39.3941 35.0058 39.8617 34.9197 40.2845 34.7514C40.3256 36.2403 40.2845 37.7667 40.4528 39.2557C39.0499 40.1461 37.1831 40.6998 35.7353 40.6998C32.2074 40.6998 28.9376 38.2344 28.9376 33.094V24.8523H28.9339ZM74.2689 12.7872V13.8085C74.2689 17.2915 74.1417 21.5826 68.3205 22.1363C74.1417 22.6039 74.2689 26.4685 74.2689 29.9103V35.1779C74.2689 37.1307 74.3101 39.2557 74.6505 40.1498H67.6396C67.172 39.0462 67.172 35.9859 67.172 33.7338V28.0398C67.172 26.0869 66.6183 24.9384 64.8338 24.9384H62.9221V19.076H64.8338C66.6183 19.076 67.172 17.9724 67.172 16.0158V13.8908C67.172 11.9379 66.6183 10.8306 64.8338 10.8306H62.9221V4.96822H68.2756C74.138 4.96822 74.2652 9.1321 74.2652 12.7872H74.2689ZM99.4206 12.7872V13.8085C99.4206 17.2915 99.2934 21.5826 93.4722 22.1363C99.2934 22.6039 99.4206 26.4685 99.4206 29.9103V32.3309C99.4206 35.9859 99.2934 40.1498 93.431 40.1498H88.0774V34.2875H89.9892C91.7737 34.2875 92.3274 33.1838 92.3274 31.2272V28.0398C92.3274 26.0869 91.7737 24.9384 89.9892 24.9384H86.7194V40.1498H79.6225V4.97196H86.7194V19.076H89.9892C91.7737 19.076 92.3274 17.9724 92.3274 16.0158V13.8908C92.3274 11.9379 91.7737 10.8306 89.9892 10.8306H88.0774V4.96822H93.431C99.2934 4.96822 99.4206 9.1321 99.4206 12.7872ZM136.982 4.96822V40.1461H129.885V4.97196H136.982V4.96822ZM98.5377 46.8464V82.0243H91.4407V46.8464H98.5377ZM60.3557 46.8464V82.0243H53.2587V46.8464H60.3557ZM48.2756 52.7088H42.4992V46.8464H48.2756V52.7088ZM54.4709 40.1461V4.97196H61.5678V40.1498H54.4709V40.1461ZM124.235 34.0705C124.235 38.4027 120.752 40.6137 115.186 40.827C116.461 38.8741 116.461 36.8763 115.186 34.9197C116.417 34.6653 117.139 33.6889 117.139 32.4543V12.6974C117.139 11.5077 116.417 10.5313 115.186 10.232C113.91 8.23423 113.91 6.28136 115.186 4.28359C120.752 4.53799 124.235 7.21664 124.235 11.5077V34.0667V34.0705ZM113.7 10.1497C112.298 10.3629 111.534 11.3394 111.534 12.6562V32.4132C111.534 33.73 112.342 34.7514 113.7 34.9609C114.976 36.9137 114.976 38.9115 113.7 40.8681C108.006 40.6998 104.437 38.4476 104.437 34.0705V11.5152C104.437 7.13808 108.006 4.41828 113.7 4.24992C112.425 6.20279 112.425 8.20056 113.7 10.1572V10.1497ZM66.0235 53.3859C66.0235 48.9677 69.5925 46.289 75.2865 46.1207C74.0108 48.0735 74.0108 50.0713 75.2865 52.0279C73.8836 52.2412 73.1204 53.2176 73.1204 54.5345V74.2914C73.1204 75.5671 73.9285 76.5847 75.2865 76.8391C76.5622 78.792 76.5622 80.7897 75.2865 82.7463C69.6374 82.578 66.0235 80.3258 66.0235 75.9487V53.3897V53.3859ZM85.8215 59.5027H78.7246V54.5756C78.7246 53.3448 78.0026 52.4095 76.7718 52.1102C75.496 50.1124 75.496 48.1596 76.7718 46.1618C82.3386 46.4162 85.8215 49.05 85.8215 53.3859V59.5027ZM115.421 46.8427H118.777V52.7051H115.421V46.8427ZM4.24992 11.5152C4.24992 7.13808 7.81896 4.41828 13.513 4.24992C12.2372 6.20279 12.2372 8.20056 13.513 10.1572C12.11 10.3704 11.3468 11.3468 11.3468 12.6637V32.4206C11.3468 33.7375 12.1549 34.7588 13.513 34.9683C14.7887 36.9212 14.7887 38.919 13.513 40.8756C7.81896 40.7072 4.24992 38.4551 4.24992 34.078V11.5152ZM24.048 19.0798H16.9511V12.7086C16.9511 11.5189 16.229 10.5425 14.9982 10.2432C13.7225 8.24545 13.7225 6.29258 14.9982 4.29482C20.565 4.54921 24.048 7.22787 24.048 11.5189V19.0835V19.0798ZM14.9982 34.9272C16.229 34.6728 16.9511 33.6964 16.9511 32.4618V24.8972H24.048V34.0742C24.048 38.4064 20.565 40.6175 14.9982 40.8307C16.2739 38.8778 16.2739 36.8801 14.9982 34.9235V34.9272Z" fill="black"/>
<path d="M41.1375 46.8464H34.0406V82.028H41.1375V66.8166H48.0212V60.9542H41.1375V46.8464Z" fill="white"/>
<path d="M48.2718 46.8464H42.4955V52.7088H48.2718V46.8464Z" fill="white"/>
<path d="M60.3594 46.8464H53.2625V82.0243H60.3594V46.8464Z" fill="white"/>
<path d="M85.8215 82.028V62.1439H75.8813V68.0063H78.7283V74.3363C78.7283 75.5671 78.0475 76.5024 76.7755 76.8017C78.0512 78.7545 78.0512 80.7523 76.7755 82.7089C79.1548 82.4957 81.407 81.392 82.4246 79.4392L82.8922 82.0318H85.8253L85.8215 82.028Z" fill="white"/>
<path d="M75.2828 82.7501C76.5585 80.7972 76.5585 78.7994 75.2828 76.8428C73.9248 76.5884 73.1167 75.5671 73.1167 74.2951V54.5382C73.1167 53.2213 73.8799 52.2449 75.2828 52.0317C74.0071 50.0788 74.0071 48.081 75.2828 46.1244C69.5888 46.2928 66.0197 48.9714 66.0197 53.3897V75.9487C66.0197 80.3258 69.6299 82.578 75.2828 82.7463V82.7501Z" fill="white"/>
<path d="M76.7717 46.1693C75.496 48.1671 75.496 50.1199 76.7717 52.1177C78.0026 52.4132 78.7246 53.3485 78.7246 54.5831V59.5102H85.8215V53.3934C85.8215 49.0612 82.3385 46.4274 76.7717 46.1693Z" fill="white"/>
<path d="M98.5414 46.8464H91.4445V82.0243H98.5414V46.8464Z" fill="white"/>
<path d="M111.171 56.9587V52.7125V46.8464H104.146V60.9542H99.8994V66.8166H104.146V82.028H111.243V56.9587H111.171Z" fill="white"/>
<path d="M120.18 82.028H127.273V52.7125H132.077V46.8464H120.18V82.028Z" fill="white"/>
<path d="M118.777 46.8464H115.421V52.7088H118.777V46.8464Z" fill="white"/>
</g>
<defs>
<clipPath id="clip0_1_112">
<rect width="153.933" height="87" fill="white"/>
</clipPath>
</defs>
</svg>
